# xmcd CD database file
#
# Track frame offsets:
#	150
#	19260
#	43222
#	60180
#	83555
#	98342
#	116892
#	132372
#	146680
#	162765
#
# Disc length: 2379 seconds
#
# Revision: 0
# Processed by: cddbd v1.4PL0 Copyright (c) Steve Scherf et al.
# Submitted via: CDex 1.50
#
DISCID=7b09490a
DTITLE=Armando Trovajoli - Jazz Piano
DYEAR=1959
DGENRE=Jazz
TTITLE0=Get Me To The Church In Time
TTITLE1=Round Midnight
TTITLE2=Nice Work If You Can Get It
TTITLE3=Walkin'
TTITLE4=Thou Swll
TTITLE5=This Can't Be Love
TTITLE6=These Foolish Things
TTITLE7=Have You Met Miss Jones
TTITLE8=Polka Dots And Moonbeams
TTITLE9=Pick Yourself Up
EXTD=YEAR: 1959
EXTT0=
EXTT1=
EXTT2=
EXTT3=
EXTT4=
EXTT5=
EXTT6=
EXTT7=
EXTT8=
EXTT9=
PLAYORDER=
